<svg height="124pt" preserveAspectRatio="xMidYMid meet" viewBox="0 0 124 124" width="124pt" xmlns="http://www.w3.org/2000/svg"><path d="m568 1165c-20-23-29-25-98-25-42 0-125-3-184-7-94-5-109-9-121-27-8-13-26-159-48-381-48-489-50-509-33-550 23-54 41-59 213-51 211 10 252 17 278 51l22 27 11-29c6-15 14-41 18-56 11-48 37-56 232-73 214-19 243-16 271 30 38 61 30 122-80 611-55 248-106 461-113 475l-11 25-167 3-168 2zm197-187c14-6 25-19 25-29s34-183 76-384c42-202 72-370 68-375-5-4-24-11-41-15-28-6-33-4-33 13 0 20-129 644-134 649-2 2-26-34-55-81-32-53-59-86-74-90-23-6-24-6-113 97l-41 47-11-88c-6-48-21-171-34-274l-22-188h-33c-17 0-35 5-38 11-11 17 66 621 82 647 23 38 46 26 122-63 41-47 75-85 76-85 2 0 34 50 71 110 38 61 72 110 76 110s19-5 33-12z" transform="matrix(.1 0 0 -.1 0 124)"/></svg>